<?xml version="1.0" encoding="UTF-8" standalone="no"?>
<!-- Generator: Adobe Illustrator 18.0.0, SVG Export Plug-In . SVG Version: 6.00 Build 0)  -->

<svg
   xmlns:dc="http://purl.org/dc/elements/1.1/"
   xmlns:cc="http://creativecommons.org/ns#"
   xmlns:rdf="http://www.w3.org/1999/02/22-rdf-syntax-ns#"
   xmlns:svg="http://www.w3.org/2000/svg"
   xmlns="http://www.w3.org/2000/svg"
   xmlns:sodipodi="http://sodipodi.sourceforge.net/DTD/sodipodi-0.dtd"
   xmlns:inkscape="http://www.inkscape.org/namespaces/inkscape"
   version="1.1"
   id="Capa_1"
   x="0px"
   y="0px"
   viewBox="0 0 39.992001 190"
   xml:space="preserve"
   sodipodi:docname="info.svg"
   width="39.992001"
   height="190"
   inkscape:version="0.92.4 (5da689c313, 2019-01-14)"><metadata
   id="metadata50"><rdf:RDF><cc:Work
       rdf:about=""><dc:format>image/svg+xml</dc:format><dc:type
         rdf:resource="http://purl.org/dc/dcmitype/StillImage" /><dc:title></dc:title></cc:Work></rdf:RDF></metadata><defs
   id="defs48" /><sodipodi:namedview
   pagecolor="#ffffff"
   bordercolor="#666666"
   borderopacity="1"
   objecttolerance="10"
   gridtolerance="10"
   guidetolerance="10"
   inkscape:pageopacity="0"
   inkscape:pageshadow="2"
   inkscape:window-width="1920"
   inkscape:window-height="1027"
   id="namedview46"
   showgrid="false"
   fit-margin-top="0"
   fit-margin-left="0"
   fit-margin-right="0"
   fit-margin-bottom="0"
   inkscape:zoom="0.71515152"
   inkscape:cx="19.998"
   inkscape:cy="95"
   inkscape:window-x="-8"
   inkscape:window-y="-8"
   inkscape:window-maximized="1"
   inkscape:current-layer="Capa_1" />
<g
   id="g43"
   transform="translate(-145.002,-70)">
	<path
   d="m 164.998,70 c -11.026,0 -19.996,8.976 -19.996,20.009 0,11.023 8.97,19.991 19.996,19.991 11.026,0 19.996,-8.968 19.996,-19.991 C 184.994,78.976 176.024,70 164.998,70 Z"
   id="path39"
   inkscape:connector-curvature="0" />
	<path
   d="m 165,140 c -8.284,0 -15,6.716 -15,15 v 90 c 0,8.284 6.716,15 15,15 8.284,0 15,-6.716 15,-15 v -90 c 0,-8.284 -6.716,-15 -15,-15 z"
   id="path41"
   inkscape:connector-curvature="0" />
</g>
</svg>