<?xml version="1.0" encoding="UTF-8" standalone="no"?>
<!-- Generator: Adobe Illustrator 18.0.0, SVG Export Plug-In . SVG Version: 6.00 Build 0)  -->

<svg
   xmlns:dc="http://purl.org/dc/elements/1.1/"
   xmlns:cc="http://creativecommons.org/ns#"
   xmlns:rdf="http://www.w3.org/1999/02/22-rdf-syntax-ns#"
   xmlns:svg="http://www.w3.org/2000/svg"
   xmlns="http://www.w3.org/2000/svg"
   xmlns:sodipodi="http://sodipodi.sourceforge.net/DTD/sodipodi-0.dtd"
   xmlns:inkscape="http://www.inkscape.org/namespaces/inkscape"
   version="1.1"
   id="Capa_1"
   x="0px"
   y="0px"
   viewBox="0 0 330 330"
   xml:space="preserve"
   sodipodi:docname="information.svg"
   width="330"
   height="330"
   inkscape:version="0.92.3 (2405546, 2018-03-11)"><metadata
   id="metadata45"><rdf:RDF><cc:Work
       rdf:about=""><dc:format>image/svg+xml</dc:format><dc:type
         rdf:resource="http://purl.org/dc/dcmitype/StillImage" /><dc:title></dc:title></cc:Work></rdf:RDF></metadata><defs
   id="defs43" /><sodipodi:namedview
   pagecolor="#ffffff"
   bordercolor="#666666"
   borderopacity="1"
   objecttolerance="10"
   gridtolerance="10"
   guidetolerance="10"
   inkscape:pageopacity="0"
   inkscape:pageshadow="2"
   inkscape:window-width="1680"
   inkscape:window-height="997"
   id="namedview41"
   showgrid="false"
   fit-margin-top="0"
   fit-margin-left="0"
   fit-margin-right="0"
   fit-margin-bottom="0"
   inkscape:zoom="0.71515152"
   inkscape:cx="165"
   inkscape:cy="165"
   inkscape:window-x="-8"
   inkscape:window-y="-8"
   inkscape:window-maximized="1"
   inkscape:current-layer="g8" />
<g
   id="g8"
   transform="translate(-503.38983,-262.88136)">
	
	
	<g
   id="g855"
   transform="translate(18.17797,-13.98305)"><path
     inkscape:connector-curvature="0"
     id="path2"
     d="m 650.21186,276.86441 c -90.981,0 -165,74.02 -165,165.001 0,90.981 74.019,164.999 165,164.999 90.981,0 165,-74.018 165,-164.999 0,-90.981 -74.019,-165.001 -165,-165.001 z m 0,300 c -74.44,0 -135,-60.56 -135,-134.999 0,-74.439 60.56,-135.001 135,-135.001 74.44,0 135,60.562 135,135.001 0,74.439 -60.561,134.999 -135,134.999 z" /><path
     inkscape:connector-curvature="0"
     id="path4"
     d="m 650.20986,346.86441 c -11.026,0 -19.996,8.976 -19.996,20.009 0,11.023 8.97,19.991 19.996,19.991 11.026,0 19.996,-8.968 19.996,-19.991 0,-11.033 -8.97,-20.009 -19.996,-20.009 z" /><path
     inkscape:connector-curvature="0"
     id="path6"
     d="m 650.21186,416.86441 c -8.284,0 -15,6.716 -15,15 v 90 c 0,8.284 6.716,15 15,15 8.284,0 15,-6.716 15,-15 v -90 c 0,-8.284 -6.716,-15 -15,-15 z" /></g>
</g>
</svg>