<?xml version="1.0" encoding="UTF-8" standalone="no"?>
<!-- Generator: Adobe Illustrator 19.0.0, SVG Export Plug-In . SVG Version: 6.00 Build 0)  -->

<svg
   xmlns:dc="http://purl.org/dc/elements/1.1/"
   xmlns:cc="http://creativecommons.org/ns#"
   xmlns:rdf="http://www.w3.org/1999/02/22-rdf-syntax-ns#"
   xmlns:svg="http://www.w3.org/2000/svg"
   xmlns="http://www.w3.org/2000/svg"
   xmlns:sodipodi="http://sodipodi.sourceforge.net/DTD/sodipodi-0.dtd"
   xmlns:inkscape="http://www.inkscape.org/namespaces/inkscape"
   version="1.1"
   id="Layer_1"
   x="0px"
   y="0px"
   viewBox="0 0 511.99976 511.99975"
   xml:space="preserve"
   sodipodi:docname="warning.svg"
   width="511.99976"
   height="511.99976"
   inkscape:version="0.92.3 (2405546, 2018-03-11)"><metadata
   id="metadata55"><rdf:RDF><cc:Work
       rdf:about=""><dc:format>image/svg+xml</dc:format><dc:type
         rdf:resource="http://purl.org/dc/dcmitype/StillImage" /><dc:title></dc:title></cc:Work></rdf:RDF></metadata><defs
   id="defs53" /><sodipodi:namedview
   pagecolor="#ffffff"
   bordercolor="#666666"
   borderopacity="1"
   objecttolerance="10"
   gridtolerance="10"
   guidetolerance="10"
   inkscape:pageopacity="0"
   inkscape:pageshadow="2"
   inkscape:window-width="1680"
   inkscape:window-height="997"
   id="namedview51"
   showgrid="false"
   fit-margin-top="0"
   fit-margin-left="0"
   fit-margin-right="0"
   fit-margin-bottom="0"
   inkscape:zoom="0.4609375"
   inkscape:cx="256.00044"
   inkscape:cy="220.142"
   inkscape:window-x="-8"
   inkscape:window-y="-8"
   inkscape:window-maximized="1"
   inkscape:current-layer="Layer_1" />


<g
   id="g871"
   transform="translate(-5.7233473e-6,-35.857378)"><g
     transform="translate(4.4115731e-4,35.857756)"
     id="g6">
	<g
   id="g4">
		<path
   inkscape:connector-curvature="0"
   id="path2"
   d="M 505.403,406.394 295.389,58.102 c -8.274,-13.721 -23.367,-22.245 -39.39,-22.245 -16.023,0 -31.116,8.524 -39.391,22.246 L 6.595,406.394 c -8.551,14.182 -8.804,31.95 -0.661,46.37 8.145,14.42 23.491,23.378 40.051,23.378 h 420.028 c 16.56,0 31.907,-8.958 40.052,-23.379 8.143,-14.421 7.89,-32.189 -0.662,-46.369 z m -28.364,29.978 c -2.242,3.969 -6.467,6.436 -11.026,6.436 H 45.985 c -4.559,0 -8.784,-2.466 -11.025,-6.435 -2.242,-3.97 -2.172,-8.862 0.181,-12.765 L 245.156,75.316 c 2.278,-3.777 6.433,-6.124 10.844,-6.124 4.41,0 8.565,2.347 10.843,6.124 l 210.013,348.292 c 2.355,3.904 2.425,8.795 0.183,12.764 z" />
	</g>
</g><g
     transform="translate(4.4115731e-4,35.857756)"
     id="g12">
	<g
   id="g10">
		<path
   inkscape:connector-curvature="0"
   id="path8"
   d="m 256.154,173.005 c -12.68,0 -22.576,6.804 -22.576,18.866 0,36.802 4.329,89.686 4.329,126.489 10e-4,9.587 8.352,13.607 18.248,13.607 7.422,0 17.937,-4.02 17.937,-13.607 0,-36.802 4.329,-89.686 4.329,-126.489 0,-12.061 -10.205,-18.866 -22.267,-18.866 z" />
	</g>
</g><g
     transform="translate(4.4115731e-4,35.857756)"
     id="g18">
	<g
   id="g16">
		<path
   inkscape:connector-curvature="0"
   id="path14"
   d="m 256.465,353.306 c -13.607,0 -23.814,10.824 -23.814,23.814 0,12.68 10.206,23.814 23.814,23.814 12.68,0 23.505,-11.134 23.505,-23.814 0,-12.99 -10.826,-23.814 -23.505,-23.814 z" />
	</g>
</g></g>
<g
   id="g20"
   transform="translate(4.4115731e-4,35.857756)">
</g>
<g
   id="g22"
   transform="translate(4.4115731e-4,35.857756)">
</g>
<g
   id="g24"
   transform="translate(4.4115731e-4,35.857756)">
</g>
<g
   id="g26"
   transform="translate(4.4115731e-4,35.857756)">
</g>
<g
   id="g28"
   transform="translate(4.4115731e-4,35.857756)">
</g>
<g
   id="g30"
   transform="translate(4.4115731e-4,35.857756)">
</g>
<g
   id="g32"
   transform="translate(4.4115731e-4,35.857756)">
</g>
<g
   id="g34"
   transform="translate(4.4115731e-4,35.857756)">
</g>
<g
   id="g36"
   transform="translate(4.4115731e-4,35.857756)">
</g>
<g
   id="g38"
   transform="translate(4.4115731e-4,35.857756)">
</g>
<g
   id="g40"
   transform="translate(4.4115731e-4,35.857756)">
</g>
<g
   id="g42"
   transform="translate(4.4115731e-4,35.857756)">
</g>
<g
   id="g44"
   transform="translate(4.4115731e-4,35.857756)">
</g>
<g
   id="g46"
   transform="translate(4.4115731e-4,35.857756)">
</g>
<g
   id="g48"
   transform="translate(4.4115731e-4,35.857756)">
</g>
</svg>