<?xml version="1.0" encoding="utf-8"?>
<!-- Generator: Adobe Illustrator 18.0.0, SVG Export Plug-In . SVG Version: 6.00 Build 0)  -->
<!DOCTYPE svg PUBLIC "-//W3C//DTD SVG 1.1//EN" "http://www.w3.org/Graphics/SVG/1.1/DTD/svg11.dtd">
<svg version="1.1" id="TEMPLATE" xmlns="http://www.w3.org/2000/svg" xmlns:xlink="http://www.w3.org/1999/xlink" x="0px" y="0px"
	 viewBox="0 0 50 50" enable-background="new 0 0 50 50" xml:space="preserve">
<g>
	<g>
		<path fill="#A5C639" d="M42.9,15.6c-1.7,0-3,1.4-3,3.1v12c0,1.7,1.4,3.1,3,3.1c1.7,0,3-1.4,3-3.1v-12C45.9,17,44.5,15.6,42.9,15.6
			z M6.4,15.6c-1.7,0-3,1.4-3,3.1v12c0,1.7,1.4,3.1,3,3.1c1.7,0,3-1.4,3-3.1v-12C9.4,17,8,15.6,6.4,15.6z"/>
	</g>
	<g>
		<path fill="#A5C639" d="M11.2,15.7v22c0,1.3,1.1,2.4,2.4,2.4h2.7v6.6c0,1.7,1.4,3.1,3,3.1c1.7,0,3-1.4,3-3.1v-6.6h4.7v6.6
			c0,1.7,1.4,3.1,3,3.1c1.7,0,3-1.4,3-3.1v-6.6h2.7c1.3,0,2.4-1.1,2.4-2.4v-22H11.2z"/>
	</g>
	<g>
		<path fill="#A5C639" d="M30.9,4.3l2.5-3.6c0.2-0.2,0.1-0.5-0.1-0.6c-0.2-0.2-0.5-0.1-0.6,0.2L30.2,4c-1.7-0.6-3.6-1.1-5.6-1.1
			S20.7,3.3,19,4l-2.6-3.7C16.3,0,16,0,15.8,0.1c-0.2,0.2-0.2,0.4-0.1,0.6l2.5,3.6c-4,1.9-6.7,5.4-7.1,9.4h26.9
			C37.7,9.7,34.9,6.2,30.9,4.3z M18.9,10c-0.8,0-1.5-0.6-1.5-1.5c0-0.8,0.6-1.5,1.5-1.5c0.8,0,1.5,0.6,1.5,1.5S19.8,10,18.9,10z
			 M30.5,10C29.6,10,29,9.3,29,8.5c0-0.8,0.6-1.5,1.5-1.5c0.8,0,1.5,0.6,1.5,1.5S31.3,10,30.5,10z"/>
	</g>
</g>
</svg>
