<?xml version="1.0" encoding="utf-8"?>
<!-- Generator: Adobe Illustrator 18.0.0, SVG Export Plug-In . SVG Version: 6.00 Build 0)  -->
<!DOCTYPE svg PUBLIC "-//W3C//DTD SVG 1.1//EN" "http://www.w3.org/Graphics/SVG/1.1/DTD/svg11.dtd">
<svg version="1.1" id="TEMPLATE" xmlns="http://www.w3.org/2000/svg" xmlns:xlink="http://www.w3.org/1999/xlink" x="0px" y="0px"
	 viewBox="0 0 50 50" enable-background="new 0 0 50 50" xml:space="preserve">
<g>
	<path fill="#B7B7B8" d="M40.4,31.1c-0.6-1.4-0.9-3-0.9-4.6c0-0.7,0.1-1.4,0.2-2c0.5-2.8,2-5.2,4.2-6.7c0.4-0.3,0.8-0.5,1.2-0.7
		c-2.9-4.5-7.5-5.2-9-5.4c-3.2-0.3-7.7,2.1-10.1,2.2h-0.1c-2.4,0-6.9-2.5-10.1-2.2c-1.6,0.2-6.6,1.2-9.7,6.1
		c-1.1,1.7-1.9,3.9-2.2,6.7c-0.1,1-0.2,2.1-0.2,3.2c0,1.2,0.1,2.3,0.3,3.4c0.3,2.4,1,4.6,1.8,6.7C6.6,40,7.8,42,9,43.8
		c2.7,3.8,5.8,6.1,7.5,6.1c3.6,0.1,6.7-2.3,9.2-2.3c0,0,0.1,0,0.1,0l0,0l0,0c0,0,0.1,0,0.1,0c2.6-0.1,5.7,2.3,9.2,2.3
		c1.7,0,4.8-2.3,7.5-6.1c1.2-1.7,2.4-3.8,3.3-6.1c0.1-0.3,0.3-0.7,0.4-1C43.7,35.9,41.6,33.8,40.4,31.1z"/>
	<path fill="#B7B7B8" d="M32.1,8.3c2.7-3.2,2.6-7.9,2.4-8.1c-0.2-0.2-4.8,0.6-7.6,3.8c-2.8,3.1-2.6,7.9-2.4,8.1
		C24.8,12.2,29.4,11.5,32.1,8.3z"/>
</g>
</svg>
